# xmcd CD database file
#
# Track frame offsets:
#	180
#	8326
#	20253
#	29670
#	44393
#	55995
#	71168
#	84086
#	97465
#	111063
#	136700
#	150004
#	165881
#	178202
#	188801
#	201061
#
# Disc length: 2829 seconds
#
# Revision: 0
# Processed by: cddbd v1.5.2PL0 Copyright (c) Steve Scherf et al.
# Submitted via: CDex 1.51
#
DISCID=c10b0b10
DTITLE=Various Artist - Golden Hits Of Jazz
DYEAR=1900
DGENRE=Jazz
TTITLE0=Jim Reeves - Bimbo
TTITLE1=Perry Como - Don't Let The Stars Get In Your Eyes
TTITLE2=Les Paul and Mary Ford - How High The Moon
TTITLE3=Slim Whitman - Indian Love Call
TTITLE4=The Helltoppers - Must I Cry Again
TTITLE5=Frank Sinatra - Say It
TTITLE6=Frank Sinatra - Tell Me At Mignight
TTITLE7=Dean Martin - When You're Smilling
TTITLE8=Les Brown - Blue Skies
TTITLE9=Chet Baker - Half Nelson
TTITLE10=Ella Fitzgerald - It's Wonderful
TTITLE11=Lester Young - Stardust
TTITLE12=Wynonie Harris - Good Rockin' Tonight
TTITLE13=Four Knights - Gospel Train
TTITLE14=Jo Stafford - Hunted Heart
TTITLE15=Patti Page - How Much Is That Doggie In The Window
EXTD=
EXTT0=
EXTT1=
EXTT2=
EXTT3=
EXTT4=
EXTT5=
EXTT6=
EXTT7=
EXTT8=
EXTT9=
EXTT10=
EXTT11=
EXTT12=
EXTT13=
EXTT14=
EXTT15=
PLAYORDER=
